<svg width="24.010742" height="24.022461" viewBox="0 0 24.0107 24.0225" fill="none" xmlns="http://www.w3.org/2000/svg" xmlns:xlink="http://www.w3.org/1999/xlink">
	<desc>
			Created with Pixso.
	</desc>
	<defs/>
	<path id="Vector" d="M8.46 4.56L6.22 0.76C5.79 0.01 4.84 -0.24 4.13 0.25C2.73 1.21 0.65 2.91 0.13 4.72C-0.67 7.54 2.22 14.23 6.17 18.18C10.11 22.12 16.46 24.67 19.28 23.87C21.09 23.35 22.79 21.27 23.75 19.87C24.24 19.16 23.99 18.21 23.25 17.78L19.44 15.54C18.71 15.11 17.79 15.32 17.32 16.02L16.27 17.56C15.82 18.23 14.94 18.45 14.26 18.01C13.17 17.3 11.47 16.06 9.7 14.3C7.94 12.53 6.7 10.83 5.99 9.74C5.55 9.06 5.77 8.18 6.44 7.73L7.98 6.68C8.68 6.21 8.89 5.29 8.46 4.56Z" fill="#FCFCFC" fill-opacity="1.000000" fill-rule="nonzero"/>
</svg>
