<svg width="7" height="13" viewBox="0 0 7 13"  xmlns="http://www.w3.org/2000/svg">
<path d="M0.26768 0.265173C0.0962853 0.435015 9.61577e-07 0.665339 9.6443e-07 0.905495C9.67283e-07 1.14565 0.0962854 1.37598 0.26768 1.54582L4.7932 6.02898L0.26768 10.5121C0.101143 10.6829 0.00899185 10.9117 0.0110752 11.1492C0.013158 11.3867 0.109308 11.6138 0.278817 11.7817C0.448326 11.9497 0.677631 12.0449 0.917343 12.047C1.15706 12.049 1.388 11.9578 1.56043 11.7928L6.73232 6.6693C6.90372 6.49945 7 6.26913 7 6.02898C7 5.78882 6.90372 5.5585 6.73232 5.38865L1.56043 0.265173C1.38898 0.095383 1.15648 6.99563e-08 0.914053 7.28585e-08C0.671627 7.57607e-08 0.439127 0.095383 0.26768 0.265173Z"/>
</svg>
