<svg width="1100" height="254" viewBox="0 0 1259 254" fill="none" xmlns="http://www.w3.org/2000/svg">
<path d="M205.467 66.8088H147.324L46.1157 144.69H45.2548V0H0V249.736H45.2548V186.392L74.0556 164.8L153.94 249.736H209.033L109.645 141.978L205.467 66.8088Z"/>
<path d="M375.935 71.3031C361.522 65.6541 344.158 62.8171 323.793 62.8171C305.027 62.8171 288.844 65.4031 275.218 70.6001C261.592 75.7972 250.771 83.0028 242.753 92.2421C234.735 101.481 229.766 111.976 227.823 123.751L227.479 125.835H270.545L271.061 124.278C273.201 115.867 278.735 109.164 287.663 104.193C296.591 99.2468 308.397 96.7613 323.104 96.7613C339.952 96.7613 352.914 100.075 362.014 106.704C371.114 113.332 375.664 122.772 375.664 134.999V140.673L295.632 142.43C277.653 142.882 263.068 145.343 251.902 149.787C240.711 154.23 232.521 160.407 227.307 168.315C222.117 176.224 219.51 185.312 219.51 195.581V195.933C219.51 208.285 222.781 218.679 229.348 227.165C235.891 235.651 245.089 242.104 256.895 246.548C268.7 250.991 282.572 253.201 298.509 253.201C310.143 253.201 320.94 251.745 330.901 248.883C340.862 246.02 349.593 241.928 357.169 236.681C364.744 231.433 370.622 225.182 374.803 217.901H375.639V249.736H420.747V133.442C420.747 118.78 416.885 106.176 409.138 95.6315C401.44 85.0616 390.347 76.9521 375.935 71.3031ZM367.548 199.272C362.112 206.025 354.439 211.298 344.502 215.114C334.541 218.93 322.981 220.838 309.749 220.838C296.075 220.838 285.105 218.629 276.866 214.185C268.602 209.741 264.495 203.013 264.495 194.024V193.673C264.495 186.643 267.421 181.044 273.3 176.877C279.178 172.734 288.721 170.474 301.953 170.123L375.689 168.265V175.32C375.689 184.534 372.983 192.543 367.548 199.272Z" />
<path d="M559.98 63.344C545.395 63.344 533.024 66.9342 522.842 74.0645C512.659 81.2199 505.65 91.1371 501.813 103.841H500.805V67.1602L455.697 66.9845V249.736H500.805V159.051C500.805 146.698 503.092 136.304 507.667 127.818C512.241 119.332 518.685 112.93 526.998 108.611C535.311 104.293 545.1 102.134 556.414 102.134C560.374 102.134 564.161 102.31 567.777 102.661C571.392 103.013 574.614 103.464 577.443 104.042V65.0764C575.303 64.6244 572.696 64.2227 569.646 63.8712C566.596 63.5197 563.374 63.344 559.98 63.344Z"/>
<path d="M903.204 72.6087C891.841 66.0809 877.97 62.8422 861.589 62.8422C850.62 62.8422 840.388 64.4992 830.895 67.7631C821.401 71.052 813.088 75.9478 805.98 82.4756C798.847 89.0033 793.043 96.9872 788.518 106.452H787.829C784.558 97.3387 779.811 89.5054 773.588 82.9275C767.366 76.3495 759.791 71.3533 750.863 67.9639C741.935 64.5745 731.826 62.8673 720.512 62.8673C705.14 62.8673 691.564 66.2065 679.832 72.9099C668.076 79.6134 659.32 89.3548 653.565 102.159H652.728V66.9848H607.474V249.736H652.728V155.586C652.728 144.288 654.819 134.346 659 125.81C663.181 117.273 669.133 110.67 676.881 106.001C684.628 101.331 693.851 98.9957 704.599 98.9957C714.88 98.9957 723.439 101.054 730.277 105.147C737.114 109.239 742.254 115.19 745.698 122.973C749.141 130.756 750.863 140.146 750.863 151.092V249.736H794.765V155.235C794.765 143.937 796.806 134.045 800.864 125.559C804.922 117.073 810.85 110.545 818.573 105.925C826.32 101.306 835.666 98.9957 846.636 98.9957C856.916 98.9957 865.475 101.08 872.313 105.222C879.15 109.365 884.291 115.416 887.734 123.299C891.177 131.208 892.899 140.748 892.899 151.946V249.736H937.834V142.782C937.834 126.513 934.882 112.378 929.029 100.377C923.175 88.3756 914.567 79.1113 903.204 72.6087Z"/>
<path d="M1129.21 71.3031C1114.79 65.6541 1097.43 62.8171 1077.06 62.8171C1058.3 62.8171 1042.12 65.4031 1028.49 70.6001C1014.86 75.7972 1004.04 83.0028 996.024 92.2421C988.006 101.481 983.038 111.976 981.095 123.751L980.751 125.835H1023.82L1024.33 124.278C1026.47 115.867 1032.01 109.164 1040.93 104.193C1049.86 99.2468 1061.67 96.7613 1076.38 96.7613C1093.22 96.7613 1106.19 100.075 1115.29 106.704C1124.39 113.332 1128.94 122.772 1128.94 134.999V140.673L1048.9 142.43C1030.92 142.882 1016.34 145.343 1005.17 149.787C993.983 154.23 985.793 160.407 980.578 168.315C975.389 176.224 972.782 185.312 972.782 195.581V195.933C972.782 208.285 976.053 218.679 982.62 227.165C989.162 235.651 998.361 242.104 1010.17 246.548C1021.97 250.991 1035.84 253.201 1051.78 253.201C1063.41 253.201 1074.21 251.745 1084.17 248.883C1094.11 245.995 1102.86 241.928 1110.44 236.681C1118.02 231.433 1123.89 225.182 1128.07 217.901H1128.91V249.736H1174.02V133.442C1174.02 118.78 1170.13 106.176 1162.41 95.6315C1154.69 85.0616 1143.62 76.9521 1129.21 71.3031ZM1120.82 199.272C1115.38 206.025 1107.71 211.298 1097.77 215.114C1087.81 218.93 1076.25 220.838 1063.02 220.838C1049.35 220.838 1038.38 218.629 1030.14 214.185C1021.87 209.741 1017.77 203.013 1017.77 194.024V193.673C1017.77 186.643 1020.69 181.044 1026.57 176.877C1032.45 172.734 1041.99 170.474 1055.22 170.123L1128.96 168.265V175.32C1128.94 184.534 1126.23 192.543 1120.82 199.272Z" />
<path d="M1251.69 209.063C1246.82 204.218 1240.67 201.782 1233.22 201.782C1225.87 201.782 1219.74 204.218 1214.82 209.063C1209.9 213.909 1207.44 219.909 1207.44 227.065C1207.44 234.095 1209.9 240.045 1214.82 244.891C1219.74 249.736 1225.87 252.171 1233.22 252.171C1240.57 252.171 1246.7 249.736 1251.62 244.891C1256.54 240.045 1258.99 234.095 1258.99 227.065C1258.97 219.909 1256.54 213.909 1251.69 209.063Z" />
</svg>
