<svg width="24.000000" height="24.000000" viewBox="0 0 20 20" fill="none" xmlns="http://www.w3.org/2000/svg" xmlns:xlink="http://www.w3.org/1999/xlink">
	<desc>
			Created with Pixso.
	</desc>
	<defs/>
	<path id="Vector" d="M19 14C19 15.32 18.47 16.59 17.53 17.53C16.59 18.47 15.32 19 14 19L6 19C4.67 19 3.4 18.47 2.46 17.53C1.52 16.59 1 15.32 1 14L1 6C1 4.67 1.52 3.4 2.46 2.46C3.4 1.52 4.67 1 6 1L14 1C15.32 1 16.59 1.52 17.53 2.46C18.47 3.4 19 4.67 19 6L19 14Z" stroke="#0B0B0B" stroke-opacity="1.000000" stroke-width="2.000000" stroke-linejoin="round"/>
	<path id="Vector" d="M9 18L9 9C9 6.81 9.5 5 13 5M7 10L13 10" stroke="#0B0B0B" stroke-opacity="1.000000" stroke-width="2.700000" stroke-linejoin="round" stroke-linecap="round"/>
</svg>
