<svg width="28.000000" height="33.129883" viewBox="0 0 28 33.1299" fill="none" xmlns="http://www.w3.org/2000/svg" xmlns:xlink="http://www.w3.org/1999/xlink">
	<path id="Fill-2" d="M23.38 17.65C23.34 13.46 26.94 11.43 27.1 11.34C25.05 8.49 21.89 8.09 20.79 8.05C18.14 7.79 15.56 9.58 14.21 9.58C12.84 9.58 10.74 8.09 8.51 8.12C5.63 8.17 2.92 9.77 1.44 12.27C-1.61 17.35 0.67 24.83 3.6 28.94C5.07 30.95 6.77 33.21 9.02 33.12C11.21 33.04 12.03 31.78 14.67 31.78C17.3 31.78 18.06 33.12 20.35 33.08C22.71 33.04 24.18 31.06 25.6 29.02C27.29 26.72 27.97 24.44 28 24.33C27.93 24.3 23.42 22.64 23.38 17.65Z"/>
	<path id="Fill-3" d="M19.18 4.87C20.37 3.57 21.18 1.8 20.96 0C19.25 0.06 17.09 1.04 15.86 2.32C14.77 3.44 13.79 5.28 14.03 7.01C15.97 7.14 17.95 6.15 19.18 4.87Z"/>
</svg>
