<svg width="12.000000" height="7.027344" viewBox="0 0 12 7.02734" fill="none" xmlns="http://www.w3.org/2000/svg" xmlns:xlink="http://www.w3.org/1999/xlink">
	<path id="Vector" d="M11.73 0.26C11.56 0.09 11.33 0 11.09 0C10.85 0 10.62 0.09 10.46 0.26L5.99 4.81L1.52 0.26C1.35 0.1 1.13 0 0.89 0.01C0.65 0.01 0.43 0.1 0.26 0.28C0.09 0.45 0 0.68 0 0.92C-0.01 1.16 0.08 1.39 0.25 1.56L5.35 6.75C5.52 6.93 5.75 7.02 5.99 7.02C6.23 7.02 6.46 6.93 6.63 6.75L11.73 1.56C11.9 1.39 12 1.16 12 0.91C12 0.67 11.9 0.44 11.73 0.26Z" />
</svg>
