<svg width="224.000183" height="45.049805" viewBox="0 0 224 45.0498" fill="none" xmlns="http://www.w3.org/2000/svg" xmlns:xlink="http://www.w3.org/1999/xlink">

	<path id="Vector" d="M36.55 11.88L26.21 11.88L8.2 25.74L8.05 25.74L8.05 0L0 0L0 44.43L8.05 44.43L8.05 33.16L13.17 29.32L27.38 44.43L37.19 44.43L19.5 25.26L36.55 11.88Z"/>
	<path id="Vector" d="M66.88 12.68C64.32 11.68 61.23 11.17 57.6 11.17C54.27 11.17 51.39 11.63 48.96 12.56C46.54 13.48 44.61 14.76 43.19 16.41C41.76 18.05 40.88 19.92 40.53 22.01L40.47 22.38L48.13 22.38L48.22 22.11C48.6 20.61 49.59 19.42 51.18 18.53C52.76 17.65 54.87 17.21 57.48 17.21C60.48 17.21 62.79 17.8 64.4 18.98C66.02 20.16 66.83 21.84 66.83 24.01L66.83 25.02L52.59 25.34C49.4 25.42 46.8 25.85 44.81 26.65C42.82 27.44 41.37 28.54 40.44 29.94C39.51 31.35 39.05 32.97 39.05 34.79L39.05 34.86C39.05 37.05 39.63 38.9 40.8 40.41C41.96 41.92 43.6 43.07 45.7 43.86C47.8 44.65 50.27 45.04 53.11 45.04C55.18 45.04 57.1 44.79 58.87 44.28C60.64 43.77 62.19 43.04 63.54 42.11C64.89 41.17 65.94 40.06 66.68 38.76L66.83 38.76L66.83 44.43L74.85 44.43L74.85 23.74C74.85 21.13 74.17 18.89 72.79 17.01C71.42 15.13 69.45 13.69 66.88 12.68ZM65.39 35.45C64.42 36.65 63.06 37.59 61.29 38.27C59.52 38.95 57.46 39.29 55.11 39.29C52.67 39.29 50.72 38.89 49.26 38.1C47.78 37.31 47.05 36.12 47.05 34.52L47.05 34.45C47.05 33.2 47.57 32.21 48.62 31.46C49.67 30.73 51.36 30.33 53.72 30.26L66.84 29.93L66.84 31.19C66.84 32.83 66.36 34.25 65.39 35.45Z"/>
	<path id="Vector" d="M99.63 11.27C97.03 11.27 94.83 11.9 93.02 13.17C91.21 14.45 89.96 16.21 89.28 18.47L89.1 18.47L89.1 11.94L81.07 11.91L81.07 44.43L89.1 44.43L89.1 28.29C89.1 26.1 89.5 24.25 90.32 22.74C91.13 21.23 92.28 20.09 93.76 19.32C95.24 18.55 96.98 18.17 98.99 18.17C99.7 18.17 100.37 18.2 101.01 18.26C101.66 18.32 102.23 18.4 102.73 18.51L102.73 11.57C102.35 11.49 101.89 11.42 101.35 11.36C100.8 11.3 100.23 11.27 99.63 11.27Z" />
	<path id="Vector" d="M160.69 12.91C158.67 11.75 156.2 11.18 153.29 11.18C151.34 11.18 149.52 11.47 147.83 12.05C146.14 12.64 144.66 13.51 143.39 14.67C142.13 15.83 141.09 17.25 140.29 18.93L140.17 18.93C139.58 17.31 138.74 15.92 137.63 14.75C136.52 13.58 135.18 12.69 133.59 12.09C132 11.48 130.2 11.18 128.19 11.18C125.45 11.18 123.04 11.77 120.95 12.97C118.86 14.16 117.3 15.89 116.28 18.17L116.13 18.17L116.13 11.91L108.08 11.91L108.08 44.43L116.13 44.43L116.13 27.68C116.13 25.67 116.5 23.9 117.24 22.38C117.99 20.86 119.05 19.69 120.43 18.85C121.8 18.02 123.45 17.61 125.36 17.61C127.19 17.61 128.71 17.97 129.92 18.7C131.14 19.43 132.06 20.49 132.67 21.87C133.28 23.26 133.59 24.93 133.59 26.88L133.59 44.43L141.4 44.43L141.4 27.61C141.4 25.6 141.76 23.84 142.48 22.33C143.21 20.82 144.26 19.66 145.64 18.84C147.01 18.02 148.68 17.61 150.63 17.61C152.46 17.61 153.98 17.98 155.2 18.72C156.41 19.45 157.33 20.53 157.94 21.93C158.55 23.34 158.86 25.04 158.86 27.03L158.86 44.43L166.85 44.43L166.85 25.4C166.85 22.5 166.33 19.99 165.29 17.85C164.25 15.72 162.71 14.07 160.69 12.91Z"/>
	<path id="Vector" d="M200.9 12.68C198.34 11.68 195.25 11.17 191.63 11.17C188.29 11.17 185.41 11.63 182.98 12.56C180.56 13.48 178.63 14.76 177.21 16.41C175.78 18.05 174.9 19.92 174.55 22.01L174.49 22.38L182.15 22.38L182.24 22.11C182.63 20.61 183.61 19.42 185.2 18.53C186.79 17.65 188.89 17.21 191.5 17.21C194.5 17.21 196.81 17.8 198.43 18.98C200.05 20.16 200.86 21.84 200.86 24.01L200.86 25.02L186.62 25.34C183.42 25.42 180.82 25.85 178.84 26.65C176.84 27.44 175.39 28.54 174.46 29.94C173.54 31.35 173.07 32.97 173.07 34.79L173.07 34.86C173.07 37.05 173.65 38.9 174.82 40.41C175.99 41.92 177.62 43.07 179.72 43.86C181.82 44.65 184.29 45.04 187.13 45.04C189.2 45.04 191.12 44.79 192.89 44.28C194.66 43.76 196.22 43.04 197.56 42.11C198.91 41.17 199.96 40.06 200.7 38.76L200.85 38.76L200.85 44.43L208.88 44.43L208.88 23.74C208.88 21.13 208.19 18.89 206.81 17.01C205.44 15.13 203.47 13.69 200.9 12.68ZM199.41 35.45C198.44 36.65 197.08 37.59 195.31 38.27C193.54 38.95 191.48 39.29 189.13 39.29C186.7 39.29 184.74 38.89 183.28 38.1C181.81 37.31 181.08 36.12 181.08 34.52L181.08 34.45C181.08 33.2 181.6 32.21 182.64 31.46C183.69 30.73 185.39 30.33 187.74 30.26L200.86 29.93L200.86 31.19C200.86 32.83 200.37 34.25 199.41 35.45Z"/>
	<path id="Vector" d="M222.7 37.19C221.83 36.33 220.74 35.9 219.41 35.9C218.1 35.9 217.01 36.33 216.14 37.19C215.26 38.05 214.82 39.12 214.82 40.39C214.82 41.65 215.26 42.7 216.14 43.57C217.01 44.43 218.1 44.86 219.41 44.86C220.72 44.86 221.81 44.43 222.68 43.57C223.56 42.7 224 41.65 224 40.39C223.99 39.12 223.56 38.05 222.7 37.19Z" />
</svg>
