<svg width="32" height="32" viewBox="0 0 32 32" fill="none" xmlns="http://www.w3.org/2000/svg">
<g clip-path="url(#clip0_302_353)">
<path d="M2.37573 1.17871C1.99608 1.67944 1.78473 2.29541 1.78473 2.95459V29.0454C1.78473 29.6577 1.9677 30.2329 2.29818 30.7134L16.5223 15.9058L2.37573 1.17871Z"/>
<path d="M17.8246 14.5496L22.4391 9.74587L6.21872 0.399433C5.51471 -0.00632856 4.70698 -0.10252 3.95331 0.108906L17.8246 14.5496Z" />
<path d="M17.8246 17.2617L3.81311 31.8482C4.11521 31.9495 4.42784 32.0005 4.7407 32.0005C5.24829 32.0005 5.75611 31.8672 6.21869 31.6006L22.5558 22.1868L17.8246 17.2617Z" />
<path d="M28.8581 13.4446L24.1159 10.7119L19.1272 15.905L24.2324 21.22L28.8581 18.5544C29.7838 18.0212 30.3363 17.0659 30.3363 15.9995C30.3363 14.9329 29.7838 13.9778 28.8581 13.4446Z" />
</g>
<defs>
<clipPath id="clip0_302_353">
<rect width="32" height="32" fill="white"/>
</clipPath>
</defs>
</svg>
