<svg width="24" height="20" viewBox="0 0 24 20" fill="none" xmlns="http://www.w3.org/2000/svg">
<path d="M11.9999 0.666626C12.9974 0.666626 14.0206 0.692293 15.0123 0.734293L16.1836 0.790293L17.3048 0.856793L18.3548 0.927959L19.3138 1.00263C20.3545 1.08228 21.3338 1.5264 22.0794 2.25684C22.825 2.98728 23.2891 3.95726 23.3901 4.99613L23.4368 5.49196L23.5243 6.55363C23.6059 7.65379 23.6666 8.85313 23.6666 9.99996C23.6666 11.1468 23.6059 12.3461 23.5243 13.4463L23.4368 14.508C23.4216 14.6783 23.4064 14.8428 23.3901 15.0038C23.289 16.0428 22.8248 17.013 22.0789 17.7434C21.3331 18.4739 20.3535 18.9179 19.3126 18.9973L18.3559 19.0708L17.3059 19.1431L16.1836 19.2096L15.0123 19.2656C14.0087 19.3092 13.0044 19.3318 11.9999 19.3333C10.9954 19.3318 9.99111 19.3092 8.98759 19.2656L7.81625 19.2096L6.69509 19.1431L5.64509 19.0708L4.68609 18.9973C3.64536 18.9176 2.66606 18.4735 1.92047 17.7431C1.17488 17.0126 0.710755 16.0427 0.609752 15.0038L0.563085 14.508L0.475585 13.4463C0.386379 12.2996 0.338903 11.1501 0.333252 9.99996C0.333252 8.85313 0.393919 7.65379 0.475585 6.55363L0.563085 5.49196C0.578252 5.32163 0.593419 5.15713 0.609752 4.99613C0.710716 3.95744 1.17467 2.98761 1.92003 2.25719C2.66538 1.52678 3.6444 1.08255 4.68492 1.00263L5.64275 0.927959L6.69275 0.856793L7.81509 0.790293L8.98642 0.734293C9.99034 0.690698 10.9951 0.668137 11.9999 0.666626ZM11.9999 2.99996C11.0374 2.99996 10.0469 3.02563 9.08325 3.06529L7.94225 3.12013L6.84675 3.18429L5.81775 3.25429L4.87509 3.32779C4.37964 3.36295 3.91264 3.57238 3.55686 3.91897C3.20108 4.26557 2.97951 4.72693 2.93142 5.22129C2.79492 6.63179 2.66659 8.38763 2.66659 9.99996C2.66659 11.6123 2.79492 13.3681 2.93142 14.7786C3.03059 15.796 3.83792 16.587 4.87509 16.6721L5.81775 16.7445L6.84675 16.8145L7.94225 16.8798L9.08325 16.9346C10.0469 16.9743 11.0374 17 11.9999 17C12.9624 17 13.9529 16.9743 14.9166 16.9346L16.0576 16.8798L17.1531 16.8156L18.1821 16.7456L19.1248 16.6721C19.6202 16.637 20.0872 16.4275 20.443 16.0809C20.7988 15.7344 21.0203 15.273 21.0684 14.7786C21.2049 13.3681 21.3333 11.6123 21.3333 9.99996C21.3333 8.38763 21.2049 6.63179 21.0684 5.22129C21.0203 4.72693 20.7988 4.26557 20.443 3.91897C20.0872 3.57238 19.6202 3.36295 19.1248 3.32779L18.1821 3.25546L17.1531 3.18546L16.0576 3.12013L14.9166 3.06529C13.9449 3.02349 12.9725 3.0017 11.9999 2.99996ZM9.66659 7.17079C9.66651 7.05677 9.69429 6.94445 9.74751 6.84361C9.80074 6.74276 9.87779 6.65645 9.97197 6.59217C10.0661 6.52788 10.1746 6.48758 10.2879 6.47477C10.4012 6.46195 10.5159 6.47701 10.6221 6.51863L10.7166 6.56529L15.6166 9.39329C15.7142 9.44959 15.7967 9.52861 15.8572 9.62364C15.9177 9.71866 15.9544 9.82688 15.9641 9.93912C15.9739 10.0513 15.9564 10.1643 15.9131 10.2683C15.8699 10.3723 15.8022 10.4644 15.7158 10.5366L15.6166 10.6066L10.7166 13.4358C10.6178 13.493 10.5066 13.5251 10.3926 13.5295C10.2786 13.5339 10.1652 13.5103 10.0624 13.4609C9.95956 13.4114 9.87038 13.3375 9.80261 13.2457C9.73485 13.1539 9.69055 13.047 9.67359 12.9341L9.66659 12.8291V7.17079Z" />
</svg>
